<?xml version="1.0" encoding="UTF-8" standalone="no"?>
<!DOCTYPE svg PUBLIC "-//W3C//DTD SVG 1.1//EN"
 "http://www.w3.org/Graphics/SVG/1.1/DTD/svg11.dtd">
<!-- Generated by graphviz version 2.40.1 (20161225.0304)
 -->
<!-- Title: dependencies Pages: 1 -->
<svg width="926pt" height="284pt"
 viewBox="0.00 0.00 926.00 284.00" xmlns="http://www.w3.org/2000/svg" xmlns:xlink="http://www.w3.org/1999/xlink">
<g id="graph0" class="graph" transform="scale(1 1) rotate(0) translate(4 280)">
<title>dependencies</title>
<polygon fill="#ffffff" stroke="transparent" points="-4,4 -4,-280 922,-280 922,4 -4,4"/>
<text text-anchor="start" x="438.0091" y="-42.4" font-family="sans-serif" font-weight="bold" font-size="14.00" fill="#000000">Legend</text>
<polygon fill="#ffffb3" stroke="transparent" points="225,-10 225,-30 245,-30 245,-10 225,-10"/>
<text text-anchor="start" x="248.629" y="-15.4" font-family="sans-serif" font-size="14.00" fill="#000000"> &#160;Declarations</text>
<polygon fill="#8dd3c7" stroke="transparent" points="338,-10 338,-30 358,-30 358,-10 338,-10"/>
<text text-anchor="start" x="361.7251" y="-15.4" font-family="sans-serif" font-size="14.00" fill="#000000"> &#160;Module</text>
<polygon fill="#80b1d3" stroke="transparent" points="424,-10 424,-30 444,-30 444,-10 424,-10"/>
<text text-anchor="start" x="447.7812" y="-15.4" font-family="sans-serif" font-size="14.00" fill="#000000"> &#160;Bootstrap</text>
<polygon fill="#fdb462" stroke="transparent" points="521,-10 521,-30 541,-30 541,-10 521,-10"/>
<text text-anchor="start" x="544.6732" y="-15.4" font-family="sans-serif" font-size="14.00" fill="#000000"> &#160;Providers</text>
<polygon fill="#fb8072" stroke="transparent" points="617,-10 617,-30 637,-30 637,-10 617,-10"/>
<text text-anchor="start" x="640.7258" y="-15.4" font-family="sans-serif" font-size="14.00" fill="#000000"> &#160;Exports</text>
<g id="clust1" class="cluster">
<title>cluster_AppModule</title>
<polygon fill="none" stroke="#000000" stroke-dasharray="1,5" points="8,-70 8,-268 910,-268 910,-70 8,-70"/>
</g>
<g id="clust2" class="cluster">
<title>cluster_AppModule_declarations</title>
<polygon fill="none" stroke="#000000" points="168,-78 168,-130 902,-130 902,-78 168,-78"/>
</g>
<g id="clust8" class="cluster">
<title>cluster_AppModule_imports</title>
<polygon fill="none" stroke="#000000" points="16,-78 16,-130 160,-130 160,-78 16,-78"/>
</g>
<g id="clust10" class="cluster">
<title>cluster_AppModule_bootstrap</title>
<polygon fill="none" stroke="#000000" points="398,-208 398,-260 522,-260 522,-208 398,-208"/>
</g>
<!-- AppComponent -->
<g id="node1" class="node">
<title>AppComponent</title>
<polygon fill="#ffffb3" stroke="#000000" points="893.9399,-122 788.0601,-122 788.0601,-86 893.9399,-86 893.9399,-122"/>
<text text-anchor="middle" x="841" y="-99.8" font-family="Times,serif" font-size="14.00" fill="#000000">AppComponent</text>
</g>
<!-- AppModule -->
<g id="node6" class="node">
<title>AppModule</title>
<polygon fill="#8dd3c7" stroke="#000000" points="501.6571,-187 498.6571,-191 477.6571,-191 474.6571,-187 418.3429,-187 418.3429,-151 501.6571,-151 501.6571,-187"/>
<text text-anchor="middle" x="460" y="-164.8" font-family="Times,serif" font-size="14.00" fill="#000000">AppModule</text>
</g>
<!-- AppComponent&#45;&gt;AppModule -->
<g id="edge1" class="edge">
<title>AppComponent&#45;&gt;AppModule</title>
<path fill="none" stroke="#000000" d="M841,-122.2843C841,-143.3211 841,-175 841,-175 841,-175 511.8635,-175 511.8635,-175"/>
<polygon fill="#000000" stroke="#000000" points="511.8636,-171.5001 501.8635,-175 511.8635,-178.5001 511.8636,-171.5001"/>
</g>
<!-- AppHeaderComponent -->
<g id="node2" class="node">
<title>AppHeaderComponent</title>
<polygon fill="#ffffb3" stroke="#000000" points="769.8501,-122 624.1499,-122 624.1499,-86 769.8501,-86 769.8501,-122"/>
<text text-anchor="middle" x="697" y="-99.8" font-family="Times,serif" font-size="14.00" fill="#000000">AppHeaderComponent</text>
</g>
<!-- AppHeaderComponent&#45;&gt;AppModule -->
<g id="edge2" class="edge">
<title>AppHeaderComponent&#45;&gt;AppModule</title>
<path fill="none" stroke="#000000" d="M697,-122.0225C697,-139.3734 697,-163 697,-163 697,-163 511.8253,-163 511.8253,-163"/>
<polygon fill="#000000" stroke="#000000" points="511.8253,-159.5001 501.8253,-163 511.8253,-166.5001 511.8253,-159.5001"/>
</g>
<!-- CreateUserComponent -->
<g id="node3" class="node">
<title>CreateUserComponent</title>
<polygon fill="#ffffb3" stroke="#000000" points="606.2907,-122 461.7093,-122 461.7093,-86 606.2907,-86 606.2907,-122"/>
<text text-anchor="middle" x="534" y="-99.8" font-family="Times,serif" font-size="14.00" fill="#000000">CreateUserComponent</text>
</g>
<!-- CreateUserComponent&#45;&gt;AppModule -->
<g id="edge3" class="edge">
<title>CreateUserComponent&#45;&gt;AppModule</title>
<path fill="none" stroke="#000000" d="M481.8415,-122.1061C481.8415,-122.1061 481.8415,-140.991 481.8415,-140.991"/>
<polygon fill="#000000" stroke="#000000" points="478.3416,-140.9909 481.8415,-150.991 485.3416,-140.991 478.3416,-140.9909"/>
</g>
<!-- LoginComponent -->
<g id="node4" class="node">
<title>LoginComponent</title>
<polygon fill="#ffffb3" stroke="#000000" points="443.2758,-122 328.7242,-122 328.7242,-86 443.2758,-86 443.2758,-122"/>
<text text-anchor="middle" x="386" y="-99.8" font-family="Times,serif" font-size="14.00" fill="#000000">LoginComponent</text>
</g>
<!-- LoginComponent&#45;&gt;AppModule -->
<g id="edge4" class="edge">
<title>LoginComponent&#45;&gt;AppModule</title>
<path fill="none" stroke="#000000" d="M430.7798,-122.1061C430.7798,-122.1061 430.7798,-140.991 430.7798,-140.991"/>
<polygon fill="#000000" stroke="#000000" points="427.2799,-140.9909 430.7798,-150.991 434.2799,-140.991 427.2799,-140.9909"/>
</g>
<!-- UsersListComponent -->
<g id="node5" class="node">
<title>UsersListComponent</title>
<polygon fill="#ffffb3" stroke="#000000" points="310.4818,-122 175.5182,-122 175.5182,-86 310.4818,-86 310.4818,-122"/>
<text text-anchor="middle" x="243" y="-99.8" font-family="Times,serif" font-size="14.00" fill="#000000">UsersListComponent</text>
</g>
<!-- UsersListComponent&#45;&gt;AppModule -->
<g id="edge5" class="edge">
<title>UsersListComponent&#45;&gt;AppModule</title>
<path fill="none" stroke="#000000" d="M243,-122.0225C243,-139.3734 243,-163 243,-163 243,-163 408.1602,-163 408.1602,-163"/>
<polygon fill="#000000" stroke="#000000" points="408.1603,-166.5001 418.1602,-163 408.1602,-159.5001 408.1603,-166.5001"/>
</g>
<!-- AppComponent  -->
<g id="node8" class="node">
<title>AppComponent </title>
<polygon fill="#80b1d3" stroke="#000000" points="514.439,-252 405.561,-252 405.561,-216 514.439,-216 514.439,-252"/>
<text text-anchor="middle" x="460" y="-229.8" font-family="Times,serif" font-size="14.00" fill="#000000">AppComponent </text>
</g>
<!-- AppModule&#45;&gt;AppComponent  -->
<g id="edge7" class="edge">
<title>AppModule&#45;&gt;AppComponent </title>
<path fill="none" stroke="#000000" stroke-dasharray="1,5" d="M460,-187.1061C460,-187.1061 460,-205.991 460,-205.991"/>
<polygon fill="#000000" stroke="#000000" points="456.5001,-205.9909 460,-215.991 463.5001,-205.991 456.5001,-205.9909"/>
</g>
<!-- AppRoutingModule -->
<g id="node7" class="node">
<title>AppRoutingModule</title>
<polygon fill="#8dd3c7" stroke="#000000" points="152.2744,-122 149.2744,-126 128.2744,-126 125.2744,-122 23.7256,-122 23.7256,-86 152.2744,-86 152.2744,-122"/>
<text text-anchor="middle" x="88" y="-99.8" font-family="Times,serif" font-size="14.00" fill="#000000">AppRoutingModule</text>
</g>
<!-- AppRoutingModule&#45;&gt;AppModule -->
<g id="edge6" class="edge">
<title>AppRoutingModule&#45;&gt;AppModule</title>
<path fill="none" stroke="#000000" d="M88,-122.2843C88,-143.3211 88,-175 88,-175 88,-175 408.05,-175 408.05,-175"/>
<polygon fill="#000000" stroke="#000000" points="408.05,-178.5001 418.05,-175 408.05,-171.5001 408.05,-178.5001"/>
</g>
</g>
</svg>
